<svg xmlns="http://www.w3.org/2000/svg" width="556.927" height="520.4" viewBox="0 0 556.927 520.4"><g transform="translate(-36 -299.4)"><g transform="translate(107 56)"><path d="M410,224.4c183.2,75.283,375.2,0,375.2,0v266H410Z" transform="translate(-410 19)" fill="#c10a15" opacity="0.5"/><path d="M410,478.8c183.2-72,375.2,0,375.2,0V224.4H410Z" transform="translate(-410 285)" fill="#c10a15" opacity="0.5"/><circle cx="16" cy="16" r="16" transform="translate(-21 302)" fill="#e86067" opacity="0.64"/><circle cx="47" cy="47" r="47" transform="translate(186 277)" fill="#e86067" opacity="0.64"/><circle cx="75" cy="75" r="75" transform="translate(320 578)" fill="#e86067" opacity="0.64"/><circle cx="42.5" cy="42.5" r="42.5" transform="translate(0 594)" fill="#e86067" opacity="0.64"/><circle cx="22.5" cy="22.5" r="22.5" transform="translate(249 312)" fill="#e86067" opacity="0.64"/><circle cx="42.5" cy="42.5" r="42.5" transform="translate(-31 371)" fill="#e86067" opacity="0.64"/></g><path d="M658.231,584.19V766.257h110.7V584.19Z" transform="translate(-176 31)" fill="#fff"/><rect width="71" height="199" transform="translate(36 332)" fill="#fff"/></g></svg>