<!DOCTYPE svg PUBLIC "-//W3C//DTD SVG 20010904//EN" "http://www.w3.org/TR/2001/REC-SVG-20010904/DTD/svg10.dtd">
<svg version="1.0" xmlns="http://www.w3.org/2000/svg" width="190px" height="168px" viewBox="0 0 1900 1680" preserveAspectRatio="xMidYMid meet">
<g id="layer101" fill="#c82f32" stroke="none">
 <path d="M619 1641 c-49 -10 -137 -69 -191 -130 -60 -67 -144 -211 -218 -376 -15 -34 -82 -238 -144 -440 -71 -235 -58 -408 37 -500 74 -70 132 -86 306 -84 80 0 178 7 216 14 39 7 84 16 100 19 80 15 260 56 350 80 160 44 200 56 300 96 11 5 31 11 45 14 110 22 267 112 347 199 63 68 75 105 71 213 -4 109 -2 107 -168 284 -110 118 -124 132 -173 173 -12 10 -47 42 -77 71 -88 84 -219 189 -290 231 -36 21 -88 53 -116 71 -96 62 -266 90 -395 65z"/>
 </g>
<g id="layer102" fill="#fefdfc" stroke="none">
 <path d="M745 1151 c-82 -20 -127 -59 -176 -151 -21 -39 -24 -59 -24 -150 0 -117 11 -151 73 -229 52 -65 85 -81 165 -81 83 0 120 15 173 70 32 33 47 60 64 116 12 40 20 90 18 111 l-3 38 -146 -4 c-98 -2 -153 1 -168 8 -35 19 -26 76 22 129 15 16 32 22 63 22 35 0 47 -5 68 -31 14 -17 26 -35 26 -40 0 -5 32 -9 71 -9 68 0 70 1 64 23 -14 47 -62 112 -105 142 -48 35 -127 49 -185 36z m145 -388 c0 -32 -25 -84 -45 -97 -55 -36 -135 13 -135 82 0 21 3 22 90 22 50 0 90 -3 90 -7z"/>
 <path d="M220 850 l0 -300 70 0 70 0 0 40 c0 44 15 53 26 18 12 -40 35 -58 76 -58 l38 0 0 80 0 80 -28 0 c-29 0 -69 34 -91 77 -7 13 -11 86 -11 192 l0 171 -75 0 -75 0 0 -300z"/>
 <path d="M1177 1118 c-60 -58 -81 -117 -85 -250 -3 -99 -1 -126 17 -181 30 -89 107 -157 177 -157 28 0 104 38 104 52 0 4 7 8 15 8 13 0 15 -21 15 -131 0 -121 1 -131 18 -124 9 4 39 13 66 20 26 8 50 16 52 18 4 4 5 96 4 627 l0 151 -67 -3 c-66 -3 -68 -4 -71 -30 -3 -25 -6 -27 -25 -17 -11 7 -30 20 -41 30 -15 14 -35 19 -82 19 -57 0 -66 -3 -97 -32z m194 -88 c39 -21 52 -68 53 -191 1 -104 -1 -120 -20 -146 -15 -20 -31 -29 -57 -31 -68 -6 -97 53 -97 196 0 141 49 210 121 172z"/>
 </g>

</svg>